<!DOCTYPE svg PUBLIC "-//W3C//DTD SVG 1.1//EN" "http://www.w3.org/Graphics/SVG/1.1/DTD/svg11.dtd">

<!-- Uploaded to: SVG Repo, www.svgrepo.com, Transformed by: SVG Repo Mixer Tools -->
<svg viewBox="0 0 24 24" fill="none" xmlns="http://www.w3.org/2000/svg">

<g id="SVGRepo_bgCarrier" stroke-width="0"/>

<g id="SVGRepo_tracerCarrier" stroke-linecap="round" stroke-linejoin="round"/>

<g id="SVGRepo_iconCarrier"> <path fill-rule="evenodd" clip-rule="evenodd" d="M12 2.5C12 2.22386 11.7761 2 11.5 2H8C5.79086 2 4 3.79086 4 6V18C4 20.2091 5.79086 22 8 22H16C18.2091 22 20 20.2091 20 18V10.5C20 10.2239 19.7761 10 19.5 10H17C14.2386 10 12 7.76142 12 5V2.5ZM19.2195 8C19.552 8 19.7909 7.67893 19.6312 7.3873C19.4956 7.13969 19.3245 6.91032 19.1213 6.70711L15.2929 2.87868C15.0897 2.67546 14.8603 2.50441 14.6127 2.3688C14.3211 2.20909 14 2.44805 14 2.78055V5C14 6.65685 15.3431 8 17 8H19.2195Z" fill="currentColor"/> </g>

</svg>