<!DOCTYPE svg PUBLIC "-//W3C//DTD SVG 1.1//EN" "http://www.w3.org/Graphics/SVG/1.1/DTD/svg11.dtd">

<!-- Uploaded to: SVG Repo, www.svgrepo.com, Transformed by: SVG Repo Mixer Tools -->
<svg fill="currentColor" version="1.1" id="Layer_1" xmlns="http://www.w3.org/2000/svg" xmlns:xlink="http://www.w3.org/1999/xlink" viewBox="0 0 512 512" xml:space="preserve" stroke="currentColor">

<g id="SVGRepo_bgCarrier" stroke-width="0"/>

<g id="SVGRepo_tracerCarrier" stroke-linecap="round" stroke-linejoin="round"/>

<g id="SVGRepo_iconCarrier"> <g> <g> <path d="M416,0H96C43.072,0,0,43.072,0,96v405.333c0,4.48,2.816,8.491,7.04,10.027c1.173,0.427,2.411,0.64,3.627,0.64 c3.115,0,6.123-1.344,8.192-3.84L122.325,384H416c52.928,0,96-43.072,96-96V96C512,43.072,468.928,0,416,0z M490.667,288 c0,41.173-33.493,74.667-74.667,74.667H117.333c-3.157,0-6.165,1.408-8.192,3.84L21.333,471.872V96 c0-41.173,33.493-74.667,74.667-74.667h320c41.173,0,74.667,33.493,74.667,74.667V288z"/> </g> </g> </g>

</svg>