<svg fill="none" viewBox="0 0 24 24" xmlns="http://www.w3.org/2000/svg"><g stroke="currentColor" stroke-width="1.5"><path d="m2.5 12c0-4.47834 0-6.71751 1.39124-8.10876 1.39125-1.39124 3.63042-1.39124 8.10876-1.39124 4.4783 0 6.7175 0 8.1088 1.39124 1.3912 1.39125 1.3912 3.63042 1.3912 8.10876 0 4.4783 0 6.7175-1.3912 8.1088-1.3913 1.3912-3.6305 1.3912-8.1088 1.3912-4.47834 0-6.71751 0-8.10876-1.3912-1.39124-1.3913-1.39124-3.6305-1.39124-8.1088z"/><path d="m7.5 17c2.3317-2.4422 6.6432-2.5572 9 0m-2.0049-7.5c0 1.3807-1.1209 2.5-2.5036 2.5-1.3826 0-2.50353-1.1193-2.50353-2.5 0-1.38071 1.12093-2.5 2.50353-2.5 1.3827 0 2.5036 1.11929 2.5036 2.5z" stroke-linecap="round"/></g></svg>