<svg viewBox="0 0 24 24" fill="none" xmlns="http://www.w3.org/2000/svg">
<path d="M3 6.5H13C14.933 6.5 16.5 8.067 16.5 10V17C16.5 17.8284 15.8284 18.5 15 18.5H5C3.067 18.5 1.5 16.933 1.5 15V8C1.5 7.17157 2.17157 6.5 3 6.5Z" stroke="currentColor"/>
<path d="M18.7428 9.13744L21.7428 7.33744C22.076 7.13749 22.5 7.37754 22.5 7.76619V17.2338C22.5 17.6225 22.076 17.8625 21.7428 17.6626L18.7428 15.8626C18.5921 15.7722 18.5 15.6094 18.5 15.4338V9.56619C18.5 9.39056 18.5921 9.22781 18.7428 9.13744Z" stroke="currentColor"/>
</svg>
